<svg width="100" height="100" viewBox="0 0 100 100" fill="none" xmlns="http://www.w3.org/2000/svg">
<mask id="mask0_2_6" style="mask-type:alpha" maskUnits="userSpaceOnUse" x="0" y="0" width="100" height="100">
<circle cx="50" cy="50" r="50" fill="#007AFF"/>
</mask>
<g mask="url(#mask0_2_6)">
<rect x="-12" y="-10" width="124" height="120" fill="#007AFF"/>
<path d="M69.12 35.53C69.9267 36.4833 70.33 37.4733 70.33 38.5C70.33 38.94 70.2933 39.4167 70.22 39.93C70.22 40.37 70.1833 40.7733 70.11 41.14C69.89 41.9467 69.4133 42.7167 68.68 43.45C68.0933 43.89 67.2867 44.22 66.26 44.44C65.7467 44.5867 65.2333 44.6967 64.72 44.77C64.2067 44.8433 63.6567 44.9533 63.07 45.1C62.5567 45.1733 62.0433 45.21 61.53 45.21C61.0167 45.21 60.4667 45.21 59.88 45.21H54.27C52.95 45.2833 51.63 45.32 50.31 45.32C49.0633 45.32 47.8167 45.32 46.57 45.32C46.6433 47.5933 46.68 50.05 46.68 52.69C46.68 55.2567 46.6433 58.2633 46.57 61.71C46.57 65.1567 46.5333 69.1533 46.46 73.7C46.46 78.2467 46.46 83.5267 46.46 89.54V97.9C46.46 98.6333 46.4967 99.1833 46.57 99.55C46.57 99.8433 46.57 100.137 46.57 100.43C46.57 100.65 46.5333 100.943 46.46 101.31C46.3133 101.97 46.2033 102.74 46.13 103.62C46.13 103.987 46.0933 104.353 46.02 104.72C45.9467 105.013 45.8367 105.343 45.69 105.71C45.3967 106.003 45.25 106.223 45.25 106.37L44.92 107.03C44.5533 107.763 43.8567 108.46 42.83 109.12C41.2167 109.927 39.42 110.11 37.44 109.67C36.1933 109.523 35.24 109.193 34.58 108.68C33.92 108.02 33.4433 107.36 33.15 106.7C32.71 105.893 32.4533 105.123 32.38 104.39C32.16 103.73 32.05 103.033 32.05 102.3V45.76C31.61 45.76 30.6933 45.76 29.3 45.76C27.9067 45.76 26.4033 45.76 24.79 45.76C23.25 45.6867 21.7833 45.6133 20.39 45.54C18.9967 45.4667 18.0433 45.3933 17.53 45.32C17.09 45.2467 16.3933 45.1367 15.44 44.99C14.56 44.8433 13.8267 44.6967 13.24 44.55C11.7 44.11 10.49 43.4133 9.61 42.46C8.80333 41.5067 8.4 40.4433 8.4 39.27C8.4 38.83 8.4 38.39 8.4 37.95C8.4 37.51 8.47333 37.1067 8.62 36.74C8.84 35.86 9.42667 35.1267 10.38 34.54C10.6733 34.32 11.1133 34.0633 11.7 33.77C12.36 33.4033 12.9833 33.1467 13.57 33C14.45 32.7067 15.55 32.4867 16.87 32.34C17.4567 32.2667 18.0433 32.23 18.63 32.23C19.2167 32.23 19.84 32.23 20.5 32.23C23.0667 32.23 25.4867 32.23 27.76 32.23C30.1067 32.23 32.5633 32.1933 35.13 32.12C39.3833 32.0467 43.6 32.0467 47.78 32.12C52.0333 32.12 56.25 32.1933 60.43 32.34C61.3833 32.4133 62.3 32.5233 63.18 32.67C64.06 32.8167 64.94 33.0733 65.82 33.44C66.48 33.66 67.1033 33.9533 67.69 34.32C68.2767 34.6133 68.7533 35.0167 69.12 35.53Z" fill="white"/>
</g>
</svg>
